<svg width="602" height="602" viewBox="0 0 602 602" fill="none" xmlns="http://www.w3.org/2000/svg">
<path d="M280.203 10.943C283.77 -2.9848 318.23 -2.98479 321.797 10.943C337.947 73.9945 365.175 149.102 409.036 192.964C452.898 236.825 528.006 264.053 591.057 280.203C604.985 283.77 604.985 318.23 591.057 321.797C528.006 337.947 452.898 365.175 409.036 409.036C365.175 452.898 337.947 528.006 321.797 591.057C318.23 604.985 283.77 604.985 280.203 591.057C264.053 528.006 236.825 452.898 192.964 409.036C149.102 365.175 73.9944 337.947 10.943 321.797C-2.9848 318.23 -2.98479 283.77 10.943 280.203C73.9945 264.053 149.102 236.825 192.964 192.964C236.825 149.102 264.053 73.9944 280.203 10.943Z" fill="#D9D9D9"/>
</svg>
