<svg width="213" height="211" viewBox="0 0 213 211" fill="none" xmlns="http://www.w3.org/2000/svg">
<path d="M104.609 1.48707C105.229 -0.310791 107.771 -0.310785 108.391 1.48707L134.309 76.6977C134.511 77.2831 134.972 77.7421 135.559 77.9405L211.402 103.606C213.214 104.219 213.214 106.781 211.402 107.394L135.559 133.059C134.972 133.258 134.511 133.717 134.309 134.302L108.391 209.513C107.771 211.311 105.229 211.311 104.609 209.513L78.6911 134.302C78.4894 133.717 78.0279 133.258 77.4414 133.059L1.59838 107.394C-0.213514 106.781 -0.213517 104.219 1.59837 103.606L77.4413 77.9405C78.0279 77.7421 78.4894 77.2831 78.6911 76.6977L104.609 1.48707Z" fill="#ffffff"/>
</svg>
